<?xml version="1.0" encoding="utf-8"?>
<!-- Generator: Adobe Illustrator 23.0.3, SVG Export Plug-In . SVG Version: 6.00 Build 0)  -->
<svg version="1.1" id="Layer_1" xmlns="http://www.w3.org/2000/svg" xmlns:xlink="http://www.w3.org/1999/xlink" x="0px" y="0px"
	 viewBox="0 0 500 500" style="enable-background:new 0 0 500 500;" xml:space="preserve">
<g>
	<g>
		<path d="M117.1,239.3c69.2-10.2,139.2-7.5,208.9-3.7c19,1,37.9,2.1,56.9,2.9c7.7,0.3,7.7-11.7,0-12c-69-2.9-138-9-207-5.1
			c-20.7,1.2-41.4,3.3-61.9,6.3C106.3,228.8,109.5,240.4,117.1,239.3L117.1,239.3z"/>
	</g>
</g>
<g>
	<g>
		<path d="M332.5,181.1c18.4,16.6,38.9,30.1,61.7,39.7c19.7,8.3,40.5,13.5,60.9,19.7c-0.5-3.7-1-7.3-1.4-11c1.6-0.8,1-0.3-0.1-0.1
			c-0.9,0.2-1.8,0.4-2.7,0.6c-2.7,0.6-5.5,1.1-8.2,1.7c-8.5,1.7-16.9,3.5-25.4,5.5c-21.1,5-42.3,10.9-61.7,20.6
			c-9.1,4.5-18.3,10.1-24.7,18.1c-4.8,6,3.7,14.5,8.5,8.5c11.5-14.4,31.8-21.2,48.8-26.7c18.5-6,37.6-10.3,56.7-14.2
			c4.9-1,10.4-1.5,14.9-3.6c4.9-2.3,3.1-9.6-1.4-11c-19.5-5.9-39.3-10.9-58.2-18.6c-21.9-8.9-41.6-22-59.1-37.7
			C335.3,167.4,326.8,175.9,332.5,181.1L332.5,181.1z"/>
	</g>
</g>
</svg>
